<?xml version="1.0" encoding="UTF-8"?>
<svg height="128px" viewBox="0 0 128 128" width="128px" xmlns="http://www.w3.org/2000/svg" xmlns:xlink="http://www.w3.org/1999/xlink">
    <linearGradient id="a" gradientTransform="matrix(0.232143 0 0 0.342105 -8.566864 269.739777)" gradientUnits="userSpaceOnUse" x1="88.595886" x2="536.595886" y1="-449.394012" y2="-449.394012">
        <stop offset="0" stop-color="#d5d3cf"/>
        <stop offset="0.0357143" stop-color="#e4e1de"/>
        <stop offset="0.0714286" stop-color="#d5d3cf"/>
        <stop offset="0.928571" stop-color="#d5d3cf"/>
        <stop offset="0.964286" stop-color="#e4e1de"/>
        <stop offset="1" stop-color="#d5d3cf"/>
    </linearGradient>
    <path d="m 20 12 h 88 c 4.417969 0 8 3.582031 8 8 v 88 c 0 4.417969 -3.582031 8 -8 8 h -88 c -4.417969 0 -8 -3.582031 -8 -8 v -88 c 0 -4.417969 3.582031 -8 8 -8 z m 0 0" fill="url(#a)"/>
    <path d="m 22 14 h 84 c 4.417969 0 8 3.582031 8 8 v 74 c 0 4.417969 -3.582031 8 -8 8 h -84 c -4.417969 0 -8 -3.582031 -8 -8 v -74 c 0 -4.417969 3.582031 -8 8 -8 z m 0 0" fill="#ffffff"/>
    <path d="m 51.167969 24.824219 l -7.484375 10.539062 v 5.960938 l -6.515625 3.097656 l -0.058594 -0.027344 v 38.875 l 25.394531 11.996094 l 1.550782 0.734375 l 1.550781 -0.734375 l 25.394531 -11.996094 v -38.875 l -0.046875 0.023438 l -6.515625 -3.101563 v -5.953125 l -0.226562 -0.320312 l -7.257813 -10.21875 l -7.484375 10.539062 v 0.011719 l -5.449219 -7.671875 l -5.402343 7.613281 l -0.195313 -0.273437 z m 1.324219 6.121093 l 2.894531 4.078126 h -8.4375 l 2.859375 -4.027344 z m 25.785156 0 l 2.894531 4.078126 h -8.4375 l 2.859375 -4.027344 z m -12.933594 2.882813 l 2.894531 4.078125 h -8.4375 l 2.863281 -4.03125 z m -19.195312 3.25 h 4 v 13.476563 l -4 -1.890626 z m 6.054687 0 h 3.984375 v 16.328125 l -3.984375 -1.882812 z m 19.730469 0 h 4 v 14.433594 l -4 1.890625 z m 6.054687 0 h 3.984375 v 11.582031 l -3.984375 1.878906 z m -18.988281 2.882813 h 4.003906 v 16.664062 l -4.003906 -1.890625 z m 6.058594 0 h 3.980468 v 14.808593 l -3.980468 1.878907 z m 19.378906 4.429687 l 3.523438 1.4375 l -3.523438 1.664063 z m -40.753906 0.003906 v 3.105469 l -3.523438 -1.664062 z m -3.46875 4.898438 l 22.289062 10.527343 v 32.015626 l -22.289062 -10.53125 z m 47.683594 0 v 32.011719 l -22.292969 10.53125 v -32.011719 z m 0 0"/>
</svg>
