<?xml version="1.0" encoding="UTF-8"?>
<svg height="16px" viewBox="0 0 16 16" width="16px" xmlns="http://www.w3.org/2000/svg">
    <g fill-rule="evenodd">
        <path d="m 3 4.925781 l -0.21875 0.074219 l -0.40625 0.140625 l -0.363281 0.125 l 0.988281 0.394531 z m 0 0"/>
        <path d="m 13 4.921875 v 0.738281 l 1 -0.398437 l -0.355469 -0.121094 l -0.410156 -0.140625 z m 0 0"/>
        <path d="m 5 1.027344 l -1.929688 3.222656 c 0.085938 -0.15625 0.25 -0.25 0.429688 -0.25 h 0.886719 l 0.613281 -1.027344 l 0.613281 1.027344 h 0.886719 c 0.09375 0 0.1875 0.03125 0.269531 0.082031 l 0.03125 -0.054687 z m 0 0"/>
        <path d="m 11 1.027344 l -1.800781 3 l 0.03125 0.054687 c 0.082031 -0.050781 0.175781 -0.082031 0.269531 -0.082031 h 0.882812 l 0.617188 -1.027344 l 0.613281 1.027344 h 0.886719 c 0.179688 0 0.34375 0.09375 0.429688 0.25 z m 0 0"/>
        <path d="m 9.480469 4 c -0.085938 0.003906 -0.171875 0.035156 -0.25 0.082031 l 0.269531 0.445313 l 0.28125 0.472656 l 0.148438 0.25 h 0.003906 v 0.003906 l 0.011718 0.019532 l 0.007813 0.015624 l 0.007813 0.011719 c 0.019531 0.050781 0.035156 0.105469 0.039062 0.164063 v -0.464844 h 2 v 1.0625 l 0.5 -0.203125 l 0.078125 -0.027344 l 0.421875 -0.171875 v -1.160156 c 0 -0.085938 -0.023438 -0.171875 -0.066406 -0.25 l -0.003906 -0.003906 c -0.085938 -0.152344 -0.25 -0.246094 -0.429688 -0.246094 h -3 c -0.007812 0 -0.011719 0 -0.019531 0 z m 0 0"/>
        <path d="m 3.5 4 c -0.179688 0 -0.34375 0.09375 -0.429688 0.25 h -0.003906 v 0.003906 c -0.042968 0.074219 -0.066406 0.160156 -0.066406 0.246094 v 1.160156 l 0.433594 0.171875 l 0.066406 0.027344 l 0.5 0.203125 v -1.0625 h 2 v 0.464844 c 0.003906 -0.058594 0.019531 -0.113282 0.039062 -0.167969 l 0.015626 -0.023437 l 0.011718 -0.019532 v -0.003906 l 0.003906 -0.003906 l 0.148438 -0.246094 l 0.28125 -0.472656 l 0.269531 -0.445313 c -0.082031 -0.050781 -0.175781 -0.082031 -0.269531 -0.082031 z m 0 0"/>
        <path d="m 8 2.027344 l -1.199219 2 l -0.03125 0.054687 l -0.269531 0.445313 l -0.28125 0.472656 l -0.117188 0.199219 c 0.089844 -0.121094 0.230469 -0.195313 0.378907 -0.199219 h 0.90625 l 0.613281 -1.027344 l 0.617188 1.027344 h 0.902343 c 0.148438 0.003906 0.289063 0.078125 0.378907 0.199219 l -0.117188 -0.199219 l -0.28125 -0.472656 l -0.269531 -0.445313 l -0.03125 -0.054687 z m 0 0"/>
        <path d="m 6.5 5 c -0.179688 0 -0.34375 0.09375 -0.429688 0.25 h -0.003906 v 0.003906 c -0.042968 0.074219 -0.066406 0.160156 -0.066406 0.246094 v 1.359375 l 0.5 0.203125 l 0.5 0.199219 v -1.261719 h 2 v 1.261719 l 0.5 -0.199219 l 0.5 -0.203125 v -1.359375 c 0 -0.085938 -0.023438 -0.175781 -0.066406 -0.25 l -0.003906 -0.003906 c -0.085938 -0.152344 -0.25 -0.246094 -0.429688 -0.246094 z m 0 0"/>
        <path d="m 14 5.261719 l -1 0.398437 l -0.425781 0.171875 l -0.074219 0.03125 l -0.5 0.199219 l -2 0.800781 l -1 0.398438 l -1 0.402343 v 8.335938 l 6 -1.984375 z m -1 1.476562 v 6.554688 l -4 1.324219 v -6.277344 l 0.5 -0.199219 l 0.5 -0.203125 l 2 -0.796875 l 0.5 -0.203125 z m 0 0"/>
        <path d="m 2.011719 5.265625 l -0.011719 0.003906 v 8.742188 l 6 1.988281 v -8.339844 l -1.5 -0.597656 l -0.5 -0.203125 l -2 -0.796875 l -0.5 -0.203125 l -0.066406 -0.023437 l -0.433594 -0.175782 z m 0.988281 1.472656 l 0.5 0.199219 l 0.5 0.203125 l 2 0.796875 l 0.5 0.203125 l 0.5 0.199219 v 6.277344 l -4 -1.324219 z m 0 0"/>
    </g>
</svg>
